<mxfile host="app.diagrams.net" modified="2023-10-11T14:57:49.615Z" agent="Mozilla/5.0 (Windows NT 10.0; Win64; x64; rv:109.0) Gecko/20100101 Firefox/118.0" etag="qq75I8Ew3M1EN7G-B4Ll" version="22.0.4" type="github">
  <diagram name="Page-1" id="sRmgB1Pe9PFXPVjPCZp8">
    <mxGraphModel dx="1434" dy="726" grid="1" gridSize="10" guides="1" tooltips="1" connect="1" arrows="1" fold="1" page="1" pageScale="1" pageWidth="827" pageHeight="1169" math="0" shadow="0">
      <root>
        <mxCell id="0" />
        <mxCell id="1" parent="0" />
        <mxCell id="tPyTrMyJ9M7yAe20bpE8-1" value="" style="rhombus;whiteSpace=wrap;html=1;" parent="1" vertex="1">
          <mxGeometry x="60" y="150" width="80" height="80" as="geometry" />
        </mxCell>
        <mxCell id="tPyTrMyJ9M7yAe20bpE8-2" value="" style="image;points=[];aspect=fixed;html=1;align=center;shadow=0;dashed=0;image=img/lib/allied_telesis/computer_and_terminals/Server_Desktop.svg;" parent="1" vertex="1">
          <mxGeometry x="267.25" y="146" width="42.599999999999994" height="54" as="geometry" />
        </mxCell>
        <mxCell id="tPyTrMyJ9M7yAe20bpE8-3" value="" style="image;aspect=fixed;perimeter=ellipsePerimeter;html=1;align=center;shadow=0;dashed=0;spacingTop=3;image=img/lib/active_directory/windows_server.svg;" parent="1" vertex="1">
          <mxGeometry x="362" y="380" width="41" height="50" as="geometry" />
        </mxCell>
        <mxCell id="tPyTrMyJ9M7yAe20bpE8-24" style="edgeStyle=orthogonalEdgeStyle;rounded=0;orthogonalLoop=1;jettySize=auto;html=1;exitX=0;exitY=0.5;exitDx=0;exitDy=0;" parent="1" source="tPyTrMyJ9M7yAe20bpE8-4" edge="1">
          <mxGeometry relative="1" as="geometry">
            <mxPoint x="460" y="410" as="targetPoint" />
          </mxGeometry>
        </mxCell>
        <mxCell id="tPyTrMyJ9M7yAe20bpE8-4" value="" style="image;aspect=fixed;perimeter=ellipsePerimeter;html=1;align=center;shadow=0;dashed=0;spacingTop=3;image=img/lib/active_directory/database_server.svg;" parent="1" vertex="1">
          <mxGeometry x="494" y="318" width="41" height="50" as="geometry" />
        </mxCell>
        <mxCell id="tPyTrMyJ9M7yAe20bpE8-5" value="" style="outlineConnect=0;dashed=0;verticalLabelPosition=bottom;verticalAlign=top;align=center;html=1;shape=mxgraph.aws3.traditional_server;fillColor=#7D7C7C;gradientColor=none;" parent="1" vertex="1">
          <mxGeometry x="210" y="390" width="46.5" height="63" as="geometry" />
        </mxCell>
        <mxCell id="tPyTrMyJ9M7yAe20bpE8-6" value="Server contents" style="points=[[0,0],[0.25,0],[0.5,0],[0.75,0],[1,0],[1,0.25],[1,0.5],[1,0.75],[1,1],[0.75,1],[0.5,1],[0.25,1],[0,1],[0,0.75],[0,0.5],[0,0.25]];outlineConnect=0;gradientColor=none;html=1;whiteSpace=wrap;fontSize=12;fontStyle=0;container=1;pointerEvents=0;collapsible=0;recursiveResize=0;shape=mxgraph.aws4.group;grIcon=mxgraph.aws4.group_on_premise;strokeColor=#5A6C86;fillColor=none;verticalAlign=top;align=left;spacingLeft=30;fontColor=#5A6C86;dashed=0;" parent="1" vertex="1">
          <mxGeometry x="414" y="130" width="130" height="130" as="geometry" />
        </mxCell>
        <mxCell id="tPyTrMyJ9M7yAe20bpE8-7" value="" style="image;aspect=fixed;html=1;points=[];align=center;fontSize=12;image=img/lib/azure2/databases/SQL_Server_Registries.svg;" parent="1" vertex="1">
          <mxGeometry x="570" y="500" width="68" height="62" as="geometry" />
        </mxCell>
        <mxCell id="tPyTrMyJ9M7yAe20bpE8-8" value="" style="image;aspect=fixed;html=1;points=[];align=center;fontSize=12;image=img/lib/azure2/databases/Azure_Database_PostgreSQL_Server.svg;" parent="1" vertex="1">
          <mxGeometry x="630" y="338" width="48" height="64" as="geometry" />
        </mxCell>
        <mxCell id="tPyTrMyJ9M7yAe20bpE8-9" value="" style="image;aspect=fixed;html=1;points=[];align=center;fontSize=12;image=img/lib/azure2/databases/SQL_Server.svg;" parent="1" vertex="1">
          <mxGeometry x="166" y="540" width="68" height="68" as="geometry" />
        </mxCell>
        <mxCell id="tPyTrMyJ9M7yAe20bpE8-10" value="" style="sketch=0;aspect=fixed;pointerEvents=1;shadow=0;dashed=0;html=1;strokeColor=none;labelPosition=center;verticalLabelPosition=bottom;verticalAlign=top;align=center;fillColor=#00188D;shape=mxgraph.mscae.enterprise.cluster_server" parent="1" vertex="1">
          <mxGeometry x="180" y="490" width="40" height="50" as="geometry" />
        </mxCell>
        <mxCell id="tPyTrMyJ9M7yAe20bpE8-11" value="" style="shape=mxgraph.signs.nature.snowflake;html=1;pointerEvents=1;fillColor=#000000;strokeColor=none;verticalLabelPosition=bottom;verticalAlign=top;align=center;" parent="1" vertex="1">
          <mxGeometry x="710" y="220" width="87" height="98" as="geometry" />
        </mxCell>
        <mxCell id="tPyTrMyJ9M7yAe20bpE8-12" value="" style="outlineConnect=0;dashed=0;verticalLabelPosition=bottom;verticalAlign=top;align=center;html=1;shape=mxgraph.aws3.snowball;fillColor=#E05243;gradientColor=none;" parent="1" vertex="1">
          <mxGeometry x="740" y="402" width="67.5" height="81" as="geometry" />
        </mxCell>
        <mxCell id="tPyTrMyJ9M7yAe20bpE8-13" value="" style="sketch=0;outlineConnect=0;fontColor=#232F3E;gradientColor=none;fillColor=#7AA116;strokeColor=none;dashed=0;verticalLabelPosition=bottom;verticalAlign=top;align=center;html=1;fontSize=12;fontStyle=0;aspect=fixed;pointerEvents=1;shape=mxgraph.aws4.archive;" parent="1" vertex="1">
          <mxGeometry x="710" y="550" width="63" height="78" as="geometry" />
        </mxCell>
        <mxCell id="tPyTrMyJ9M7yAe20bpE8-14" value="" style="shape=image;html=1;verticalAlign=top;verticalLabelPosition=bottom;labelBackgroundColor=#ffffff;imageAspect=0;aspect=fixed;image=https://cdn1.iconfinder.com/data/icons/line-christmas-icons/75/_snowflake-128.png" parent="1" vertex="1">
          <mxGeometry x="600" y="72" width="128" height="128" as="geometry" />
        </mxCell>
        <mxCell id="tPyTrMyJ9M7yAe20bpE8-15" value="" style="image;aspect=fixed;html=1;points=[];align=center;fontSize=12;image=img/lib/azure2/intune/Azure_AD_Roles_and_Administrators.svg;" parent="1" vertex="1">
          <mxGeometry x="430" y="603" width="64" height="64" as="geometry" />
        </mxCell>
        <mxCell id="tPyTrMyJ9M7yAe20bpE8-16" value="" style="sketch=0;pointerEvents=1;shadow=0;dashed=0;html=1;strokeColor=none;fillColor=#505050;labelPosition=center;verticalLabelPosition=bottom;verticalAlign=top;outlineConnect=0;align=center;shape=mxgraph.office.users.conferencing_attendant;" parent="1" vertex="1">
          <mxGeometry x="520" y="608" width="53" height="59" as="geometry" />
        </mxCell>
        <mxCell id="tPyTrMyJ9M7yAe20bpE8-17" value="" style="shadow=0;dashed=0;html=1;strokeColor=none;fillColor=#4495D1;labelPosition=center;verticalLabelPosition=bottom;verticalAlign=top;align=center;outlineConnect=0;shape=mxgraph.veeam.company_administrator;" parent="1" vertex="1">
          <mxGeometry x="330" y="618.2" width="44.4" height="48.8" as="geometry" />
        </mxCell>
        <mxCell id="tPyTrMyJ9M7yAe20bpE8-18" value="" style="sketch=0;aspect=fixed;pointerEvents=1;shadow=0;dashed=0;html=1;strokeColor=none;labelPosition=center;verticalLabelPosition=bottom;verticalAlign=top;align=center;shape=mxgraph.mscae.enterprise.user_permissions;fillColor=#0078D7;" parent="1" vertex="1">
          <mxGeometry x="256.5" y="535" width="47" height="50" as="geometry" />
        </mxCell>
        <mxCell id="tPyTrMyJ9M7yAe20bpE8-19" value="" style="verticalLabelPosition=bottom;html=1;verticalAlign=top;align=center;strokeColor=none;fillColor=#00BEF2;shape=mxgraph.azure.user;" parent="1" vertex="1">
          <mxGeometry x="366" y="530" width="47.5" height="50" as="geometry" />
        </mxCell>
        <mxCell id="tPyTrMyJ9M7yAe20bpE8-20" value="" style="image;aspect=fixed;html=1;points=[];align=center;fontSize=12;image=img/lib/azure2/azure_stack/User_Subscriptions.svg;" parent="1" vertex="1">
          <mxGeometry x="199.25" y="628" width="68" height="66" as="geometry" />
        </mxCell>
        <mxCell id="tPyTrMyJ9M7yAe20bpE8-21" value="" style="sketch=0;pointerEvents=1;shadow=0;dashed=0;html=1;strokeColor=none;labelPosition=center;verticalLabelPosition=bottom;verticalAlign=top;align=center;fillColor=#505050;shape=mxgraph.mscae.intune.user_group" parent="1" vertex="1">
          <mxGeometry x="460" y="525" width="50" height="37" as="geometry" />
        </mxCell>
        <mxCell id="tPyTrMyJ9M7yAe20bpE8-22" value="" style="verticalLabelPosition=bottom;shadow=0;dashed=0;align=center;html=1;verticalAlign=top;strokeWidth=1;shape=mxgraph.mockup.containers.userFemale;strokeColor=#666666;strokeColor2=#008cff;" parent="1" vertex="1">
          <mxGeometry x="20" y="550" width="100" height="100" as="geometry" />
        </mxCell>
        <mxCell id="tPyTrMyJ9M7yAe20bpE8-23" value="" style="verticalLabelPosition=bottom;shadow=0;dashed=0;align=center;html=1;verticalAlign=top;strokeWidth=1;shape=mxgraph.mockup.containers.userMale;strokeColor=#666666;strokeColor2=#008cff;" parent="1" vertex="1">
          <mxGeometry x="60" y="481" width="100" height="100" as="geometry" />
        </mxCell>
        <mxCell id="tPyTrMyJ9M7yAe20bpE8-25" value="" style="image;points=[];aspect=fixed;html=1;align=center;shadow=0;dashed=0;image=img/lib/allied_telesis/computer_and_terminals/Server_Desktop.svg;" parent="1" vertex="1">
          <mxGeometry x="220" y="240" width="42.599999999999994" height="54" as="geometry" />
        </mxCell>
        <mxCell id="tPyTrMyJ9M7yAe20bpE8-26" value="" style="image;points=[];aspect=fixed;html=1;align=center;shadow=0;dashed=0;image=img/lib/allied_telesis/computer_and_terminals/Server_Desktop.svg;" parent="1" vertex="1">
          <mxGeometry x="267.25" y="240" width="42.599999999999994" height="54" as="geometry" />
        </mxCell>
        <mxCell id="tPyTrMyJ9M7yAe20bpE8-27" value="" style="image;points=[];aspect=fixed;html=1;align=center;shadow=0;dashed=0;image=img/lib/allied_telesis/computer_and_terminals/Server_Desktop.svg;" parent="1" vertex="1">
          <mxGeometry x="319.4" y="230" width="42.599999999999994" height="54" as="geometry" />
        </mxCell>
        <mxCell id="tPyTrMyJ9M7yAe20bpE8-28" value="Title" style="text;strokeColor=none;fillColor=none;html=1;fontSize=24;fontStyle=1;verticalAlign=middle;align=center;" parent="1" vertex="1">
          <mxGeometry x="99.25" y="318" width="100" height="40" as="geometry" />
        </mxCell>
        <UserObject label="%date{ddd mmm dd yyyy HH:MM:ss}%" placeholders="1" id="tPyTrMyJ9M7yAe20bpE8-29">
          <mxCell style="text;html=1;strokeColor=#666666;fillColor=#f5f5f5;align=center;verticalAlign=middle;whiteSpace=wrap;overflow=hidden;fontColor=#333333;direction=west;flipV=1;flipH=0;" parent="1" vertex="1">
            <mxGeometry x="30" y="30" width="160" height="20" as="geometry" />
          </mxCell>
        </UserObject>
      </root>
    </mxGraphModel>
  </diagram>
</mxfile>
